<mxfile host="app.diagrams.net" modified="2023-11-22T06:58:38.739Z" agent="Mozilla/5.0 (Macintosh; Intel Mac OS X 10_15_7) AppleWebKit/537.36 (KHTML, like Gecko) Chrome/119.0.0.0 Safari/537.36" etag="zo7HE7La2gEUwAn4sOaR" version="22.1.3" type="github">
  <diagram name="第 1 页" id="Moxse9TD_uNbHbYuPGne">
    <mxGraphModel dx="500" dy="459" grid="1" gridSize="10" guides="1" tooltips="1" connect="1" arrows="1" fold="1" page="1" pageScale="1" pageWidth="1169" pageHeight="827" math="0" shadow="0">
      <root>
        <mxCell id="0" />
        <mxCell id="1" parent="0" />
        <mxCell id="PzSbMveulUiaR9YmqSH6-3" value="" style="edgeStyle=orthogonalEdgeStyle;rounded=0;orthogonalLoop=1;jettySize=auto;html=1;" edge="1" parent="1" source="PzSbMveulUiaR9YmqSH6-1" target="PzSbMveulUiaR9YmqSH6-2">
          <mxGeometry relative="1" as="geometry" />
        </mxCell>
        <mxCell id="PzSbMveulUiaR9YmqSH6-8" style="edgeStyle=orthogonalEdgeStyle;rounded=0;orthogonalLoop=1;jettySize=auto;html=1;exitX=1;exitY=0.5;exitDx=0;exitDy=0;entryX=0;entryY=0.5;entryDx=0;entryDy=0;" edge="1" parent="1" source="PzSbMveulUiaR9YmqSH6-1" target="PzSbMveulUiaR9YmqSH6-6">
          <mxGeometry relative="1" as="geometry" />
        </mxCell>
        <mxCell id="PzSbMveulUiaR9YmqSH6-11" style="edgeStyle=orthogonalEdgeStyle;rounded=0;orthogonalLoop=1;jettySize=auto;html=1;exitX=1;exitY=0.5;exitDx=0;exitDy=0;entryX=0;entryY=0.5;entryDx=0;entryDy=0;" edge="1" parent="1" source="PzSbMveulUiaR9YmqSH6-1" target="PzSbMveulUiaR9YmqSH6-9">
          <mxGeometry relative="1" as="geometry" />
        </mxCell>
        <mxCell id="PzSbMveulUiaR9YmqSH6-16" style="edgeStyle=orthogonalEdgeStyle;rounded=0;orthogonalLoop=1;jettySize=auto;html=1;exitX=1;exitY=0.5;exitDx=0;exitDy=0;entryX=0;entryY=0.5;entryDx=0;entryDy=0;" edge="1" parent="1" source="PzSbMveulUiaR9YmqSH6-1" target="PzSbMveulUiaR9YmqSH6-14">
          <mxGeometry relative="1" as="geometry" />
        </mxCell>
        <mxCell id="PzSbMveulUiaR9YmqSH6-21" style="edgeStyle=orthogonalEdgeStyle;rounded=0;orthogonalLoop=1;jettySize=auto;html=1;exitX=1;exitY=0.5;exitDx=0;exitDy=0;entryX=0;entryY=0.5;entryDx=0;entryDy=0;" edge="1" parent="1" source="PzSbMveulUiaR9YmqSH6-1" target="PzSbMveulUiaR9YmqSH6-19">
          <mxGeometry relative="1" as="geometry" />
        </mxCell>
        <mxCell id="PzSbMveulUiaR9YmqSH6-24" style="edgeStyle=orthogonalEdgeStyle;rounded=0;orthogonalLoop=1;jettySize=auto;html=1;exitX=1;exitY=0.5;exitDx=0;exitDy=0;entryX=0;entryY=0.5;entryDx=0;entryDy=0;" edge="1" parent="1" source="PzSbMveulUiaR9YmqSH6-1" target="PzSbMveulUiaR9YmqSH6-22">
          <mxGeometry relative="1" as="geometry" />
        </mxCell>
        <mxCell id="PzSbMveulUiaR9YmqSH6-29" style="edgeStyle=orthogonalEdgeStyle;rounded=0;orthogonalLoop=1;jettySize=auto;html=1;exitX=1;exitY=0.5;exitDx=0;exitDy=0;entryX=0;entryY=0.5;entryDx=0;entryDy=0;" edge="1" parent="1" source="PzSbMveulUiaR9YmqSH6-1" target="PzSbMveulUiaR9YmqSH6-25">
          <mxGeometry relative="1" as="geometry" />
        </mxCell>
        <mxCell id="PzSbMveulUiaR9YmqSH6-30" style="edgeStyle=orthogonalEdgeStyle;rounded=0;orthogonalLoop=1;jettySize=auto;html=1;exitX=1;exitY=0.5;exitDx=0;exitDy=0;entryX=0;entryY=0.5;entryDx=0;entryDy=0;" edge="1" parent="1" source="PzSbMveulUiaR9YmqSH6-1" target="PzSbMveulUiaR9YmqSH6-27">
          <mxGeometry relative="1" as="geometry" />
        </mxCell>
        <mxCell id="PzSbMveulUiaR9YmqSH6-34" value="" style="edgeStyle=orthogonalEdgeStyle;rounded=0;orthogonalLoop=1;jettySize=auto;html=1;" edge="1" parent="1" source="PzSbMveulUiaR9YmqSH6-1" target="PzSbMveulUiaR9YmqSH6-33">
          <mxGeometry relative="1" as="geometry" />
        </mxCell>
        <mxCell id="PzSbMveulUiaR9YmqSH6-1" value="自我防御" style="whiteSpace=wrap;html=1;" vertex="1" parent="1">
          <mxGeometry x="150" y="150" width="120" height="60" as="geometry" />
        </mxCell>
        <mxCell id="PzSbMveulUiaR9YmqSH6-5" value="" style="edgeStyle=orthogonalEdgeStyle;rounded=0;orthogonalLoop=1;jettySize=auto;html=1;" edge="1" parent="1" source="PzSbMveulUiaR9YmqSH6-2" target="PzSbMveulUiaR9YmqSH6-4">
          <mxGeometry relative="1" as="geometry" />
        </mxCell>
        <mxCell id="PzSbMveulUiaR9YmqSH6-2" value="压抑" style="whiteSpace=wrap;html=1;" vertex="1" parent="1">
          <mxGeometry x="350" y="150" width="120" height="60" as="geometry" />
        </mxCell>
        <mxCell id="PzSbMveulUiaR9YmqSH6-4" value="精神分析的目的就是要让压抑的潜意识内容得到合法的意识呈现" style="whiteSpace=wrap;html=1;" vertex="1" parent="1">
          <mxGeometry x="550" y="150" width="120" height="60" as="geometry" />
        </mxCell>
        <mxCell id="PzSbMveulUiaR9YmqSH6-6" value="否认" style="whiteSpace=wrap;html=1;" vertex="1" parent="1">
          <mxGeometry x="350" y="240" width="120" height="60" as="geometry" />
        </mxCell>
        <mxCell id="PzSbMveulUiaR9YmqSH6-13" value="" style="edgeStyle=orthogonalEdgeStyle;rounded=0;orthogonalLoop=1;jettySize=auto;html=1;" edge="1" parent="1" source="PzSbMveulUiaR9YmqSH6-9" target="PzSbMveulUiaR9YmqSH6-12">
          <mxGeometry relative="1" as="geometry" />
        </mxCell>
        <mxCell id="PzSbMveulUiaR9YmqSH6-9" value="替代" style="whiteSpace=wrap;html=1;" vertex="1" parent="1">
          <mxGeometry x="350" y="330" width="120" height="60" as="geometry" />
        </mxCell>
        <mxCell id="PzSbMveulUiaR9YmqSH6-12" value="指将敌意等强烈的情感从最初唤起的对象转移到另一个较安全或不具威胁的对象上" style="whiteSpace=wrap;html=1;" vertex="1" parent="1">
          <mxGeometry x="550" y="330" width="120" height="60" as="geometry" />
        </mxCell>
        <mxCell id="PzSbMveulUiaR9YmqSH6-18" value="" style="edgeStyle=orthogonalEdgeStyle;rounded=0;orthogonalLoop=1;jettySize=auto;html=1;" edge="1" parent="1" source="PzSbMveulUiaR9YmqSH6-14" target="PzSbMveulUiaR9YmqSH6-17">
          <mxGeometry relative="1" as="geometry" />
        </mxCell>
        <mxCell id="PzSbMveulUiaR9YmqSH6-14" value="反向形成" style="whiteSpace=wrap;html=1;" vertex="1" parent="1">
          <mxGeometry x="350" y="414" width="120" height="60" as="geometry" />
        </mxCell>
        <mxCell id="PzSbMveulUiaR9YmqSH6-17" value="意指通过认同相反的态度和行为并将其作为屏障以防止自身危险欲望的表达" style="whiteSpace=wrap;html=1;" vertex="1" parent="1">
          <mxGeometry x="550" y="414" width="120" height="60" as="geometry" />
        </mxCell>
        <mxCell id="PzSbMveulUiaR9YmqSH6-19" value="理智化" style="whiteSpace=wrap;html=1;" vertex="1" parent="1">
          <mxGeometry x="350" y="500" width="120" height="60" as="geometry" />
        </mxCell>
        <mxCell id="PzSbMveulUiaR9YmqSH6-22" value="投射" style="whiteSpace=wrap;html=1;" vertex="1" parent="1">
          <mxGeometry x="350" y="580" width="120" height="60" as="geometry" />
        </mxCell>
        <mxCell id="PzSbMveulUiaR9YmqSH6-25" value="合理化" style="whiteSpace=wrap;html=1;" vertex="1" parent="1">
          <mxGeometry x="350" y="660" width="120" height="60" as="geometry" />
        </mxCell>
        <mxCell id="PzSbMveulUiaR9YmqSH6-32" value="" style="edgeStyle=orthogonalEdgeStyle;rounded=0;orthogonalLoop=1;jettySize=auto;html=1;" edge="1" parent="1" source="PzSbMveulUiaR9YmqSH6-27" target="PzSbMveulUiaR9YmqSH6-31">
          <mxGeometry relative="1" as="geometry" />
        </mxCell>
        <mxCell id="PzSbMveulUiaR9YmqSH6-27" value="升华" style="whiteSpace=wrap;html=1;" vertex="1" parent="1">
          <mxGeometry x="350" y="750" width="120" height="60" as="geometry" />
        </mxCell>
        <mxCell id="PzSbMveulUiaR9YmqSH6-31" value="升华指的是将不能被社会道德接受的冲动转化为可以被接受的建设性行为" style="whiteSpace=wrap;html=1;" vertex="1" parent="1">
          <mxGeometry x="550" y="750" width="120" height="60" as="geometry" />
        </mxCell>
        <mxCell id="PzSbMveulUiaR9YmqSH6-33" value="通过自我欺骗来自我保护" style="whiteSpace=wrap;html=1;" vertex="1" parent="1">
          <mxGeometry x="150" y="290" width="120" height="60" as="geometry" />
        </mxCell>
      </root>
    </mxGraphModel>
  </diagram>
</mxfile>
